<?xml version="1.0" encoding="UTF-8"?>
<svg width="163.327667px" height="58.7576667px" viewBox="0 0 163.327667 58.7576667" version="1.1" xmlns="http://www.w3.org/2000/svg" xmlns:xlink="http://www.w3.org/1999/xlink">
    <title>LOGO NERO@1x</title>
    <defs>
        <linearGradient x1="50%" y1="0%" x2="50%" y2="100%" id="linearGradient-1">
            <stop stop-color="#E2CA40" offset="0%"></stop>
            <stop stop-color="#FFED65" offset="100%"></stop>
        </linearGradient>
        <linearGradient x1="100%" y1="50%" x2="0%" y2="50%" id="linearGradient-2">
            <stop stop-color="#EF6F6C" offset="0%"></stop>
            <stop stop-color="#F07C79" offset="100%"></stop>
        </linearGradient>
        <linearGradient x1="27.9814162%" y1="95.5934994%" x2="78.7670418%" y2="11.9920162%" id="linearGradient-3">
            <stop stop-color="#28AFB0" offset="0%"></stop>
            <stop stop-color="#44E0DC" offset="100%"></stop>
        </linearGradient>
    </defs>
    <g id="Mockup-newsletter" stroke="none" stroke-width="1" fill="none" fill-rule="evenodd">
        <g id="Newsletter" transform="translate(-375.999867, -60.666533)">
            <g id="LOGO-NERO" transform="translate(375.999867, 60.666533)">
                <path d="M116.129333,21.9238667 C117.502,21.9238667 118.615333,23.0365333 118.615333,24.4092 C118.615333,25.7818667 117.502,26.8945333 116.129333,26.8945333 C114.756667,26.8945333 113.644,25.7818667 113.644,24.4092 C113.644,23.0365333 114.756667,21.9238667 116.129333,21.9238667 Z M116.129333,31.779 C117.502,31.779 118.615333,32.8916667 118.615333,34.265 C118.615333,35.6376667 117.502,36.7503333 116.129333,36.7503333 C114.756667,36.7503333 113.644,35.6376667 113.644,34.265 C113.644,32.8916667 114.756667,31.779 116.129333,31.779 Z M87.6244667,40.0468667 C87.6244667,40.8882 86.9511333,41.5202 86.1511333,41.5202 L71.8844667,41.5202 C71.0844667,41.5202 70.4131333,40.8882 70.4131333,40.0468667 L70.4131333,18.7542 C70.4131333,17.9108667 71.0844667,17.2375333 71.8844667,17.2375333 C72.7258,17.2375333 73.3991333,17.9108667 73.3991333,18.7542 L73.3991333,36.4282 C73.3991333,37.6068667 74.3258,38.5735333 75.5044667,38.5735333 L86.1511333,38.5735333 C86.9511333,38.5735333 87.6244667,39.2055333 87.6244667,40.0468667 M106.0252,33.1458667 L106.0252,26.2852 C106.0252,24.0978667 105.519867,22.4992 104.551867,21.5312 C103.667867,20.6472 102.2372,20.1845333 100.3852,20.2258667 C98.3238667,20.2258667 96.8092,20.6878667 95.9665333,21.6152 C95.0412,22.5405333 94.6625333,24.0138667 94.7038667,26.2445333 L94.7038667,32.4718667 C94.6625333,34.5765333 95.1252,36.0905333 96.0505333,37.0178667 C96.9772,37.9858667 98.5345333,38.4478667 100.595867,38.4478667 C104.3412,38.4478667 106.0252,35.7125333 106.0252,33.1458667 M109.0132,26.2852 L109.0132,33.1458667 C109.0132,37.1425333 106.066533,41.4365333 100.638533,41.4365333 L100.554533,41.4365333 C97.6505333,41.4365333 95.4198667,40.6792 93.9052,39.1218667 C92.5585333,37.7318667 91.8425333,35.7552 91.7585333,33.2298667 L91.7585333,26.2445333 C91.6745333,23.2565333 92.3478667,21.0672 93.8212,19.5525333 C95.2518667,18.0378667 97.4398667,17.2378667 100.343867,17.2378667 C102.994533,17.2378667 105.1412,17.9538667 106.655867,19.4272 C108.2132,20.9832 109.0132,23.2978667 109.0132,26.2852 M140.506667,34.3242667 C140.548,35.9222667 139.833333,37.6909333 138.612,38.9949333 C137.518667,40.0889333 135.582667,41.4362667 132.384,41.4362667 L132.342667,41.4362667 C129.354667,41.4362667 127.04,40.6362667 125.44,39.0376 C124.093333,37.6476 123.336,35.6282667 123.252,33.2722667 L123.252,26.2856 C123.168667,23.5082667 123.925333,21.2369333 125.44,19.6789333 C127.04,18.0809333 129.354667,17.2376 132.342667,17.2376 L132.384,17.2376 C135.582667,17.2809333 137.518667,18.5842667 138.612,19.7202667 C139.874667,21.0669333 140.590667,22.8349333 140.506667,24.4762667 C140.464,25.3176 139.749333,25.9069333 138.949333,25.9069333 C138.108,25.8656 137.476,25.1496 137.518667,24.3496 C137.56,23.6762667 137.265333,22.6669333 136.424,21.7829333 C135.750667,21.0669333 134.530667,20.2256 132.384,20.2256 C130.196,20.2256 128.596,20.7309333 127.586667,21.7829333 C126.618667,22.7509333 126.156667,24.2656 126.24,26.2442667 C126.24,26.2442667 126.197333,26.2442667 126.197333,26.2856 L126.24,26.2856 L126.24,32.4722667 C126.156667,34.4489333 126.618667,35.9656 127.586667,36.9336 C128.596,37.9429333 130.153333,38.4896 132.384,38.4896 C134.530667,38.4482667 135.750667,37.6069333 136.424,36.9336 C137.265333,36.0496 137.56,35.0389333 137.518667,34.3656 L137.518667,32.2616 C137.518667,31.4616 136.886667,30.8309333 136.088,30.8309333 L132.132,30.8309333 C131.332,30.8309333 130.658667,30.1576 130.658667,29.3576 C130.658667,28.5162667 131.332,27.8429333 132.132,27.8429333 L138.990667,27.8429333 C139.833333,27.8429333 140.506667,28.5162667 140.506667,29.3576 L140.506667,34.3242667 Z M160.339667,33.1458667 L160.339667,26.2852 C160.339667,24.0978667 159.834333,22.4992 158.866333,21.5312 C157.982333,20.6472 156.551667,20.1845333 154.699667,20.2258667 C152.638333,20.2258667 151.123667,20.6878667 150.281,21.6152 C149.355667,22.5405333 148.977667,24.0138667 149.018333,26.2445333 L149.018333,32.4718667 C148.977667,34.5765333 149.439667,36.0905333 150.365,37.0178667 C151.291667,37.9858667 152.849,38.4478667 154.910333,38.4478667 C158.655667,38.4478667 160.339667,35.7125333 160.339667,33.1458667 M163.327667,26.2852 L163.327667,33.1458667 C163.327667,37.1425333 160.381,41.4365333 154.953,41.4365333 L154.869,41.4365333 C151.965,41.4365333 149.734333,40.6792 148.219667,39.1218667 C146.873,37.7318667 146.157,35.7552 146.073,33.2298667 L146.073,26.2445333 C145.989667,23.2565333 146.662333,21.0672 148.135667,19.5525333 C149.566333,18.0378667 151.754333,17.2378667 154.658333,17.2378667 C157.309,17.2378667 159.455667,17.9538667 160.970333,19.4272 C162.527667,20.9832 163.327667,23.2978667 163.327667,26.2852" id="Combined-Shape" fill="#272727"></path>
                <path d="M22.8315333,13.1816667 L18.5335333,20.6263333 C16.4842,24.1763333 16.4842,28.5503333 18.5335333,32.101 L33.9235333,58.7576667 L38.2215333,51.3136667 C40.2715333,47.763 40.2715333,43.389 38.2215333,39.8383333 L22.8315333,13.1816667 Z" id="Fill-14" fill="url(#linearGradient-1)"></path>
                <path d="M4.298,7.444 L0,7.10542736e-15 L30.7806667,7.10542736e-15 C34.8806667,7.10542736e-15 38.6686667,2.18733333 40.7186667,5.73733333 L45.0166667,13.1813333 L14.236,13.1813333 C10.136,13.1813333 6.348,10.9946667 4.298,7.444" id="Fill-16" fill="url(#linearGradient-2)"></path>
                <path d="M67.8477333,7.10542736e-15 L52.4577333,26.6566667 C50.4070667,30.2073333 46.6190667,32.3946667 42.5197333,32.3946667 L33.9237333,32.3946667 L49.3144,5.73733333 C51.3637333,2.18733333 55.1524,7.10542736e-15 59.2517333,7.10542736e-15 L67.8477333,7.10542736e-15 Z" id="Fill-19" fill="url(#linearGradient-3)"></path>
            </g>
        </g>
    </g>
</svg>